<?xml version="1.0" encoding="UTF-8" standalone="no"?>
<!-- Created with Inkscape (http://www.inkscape.org/) -->
<svg
   xmlns:dc="http://purl.org/dc/elements/1.1/"
   xmlns:cc="http://web.resource.org/cc/"
   xmlns:rdf="http://www.w3.org/1999/02/22-rdf-syntax-ns#"
   xmlns:svg="http://www.w3.org/2000/svg"
   xmlns="http://www.w3.org/2000/svg"
   xmlns:sodipodi="http://sodipodi.sourceforge.net/DTD/sodipodi-0.dtd"
   xmlns:inkscape="http://www.inkscape.org/namespaces/inkscape"
   width="170.71001"
   height="92.309998"
   id="svg2"
   sodipodi:version="0.32"
   inkscape:version="0.45.1"
   version="1.0"
   sodipodi:docbase="C:\Documents and Settings\Alex Jones\Desktop"
   sodipodi:docname="SuperAguri_logo.svg"
   inkscape:output_extension="org.inkscape.output.svg.inkscape">
  <defs
     id="defs4" />
  <sodipodi:namedview
     id="base"
     pagecolor="#ffffff"
     bordercolor="#666666"
     borderopacity="1.0"
     gridtolerance="10000"
     guidetolerance="10"
     objecttolerance="10"
     inkscape:pageopacity="0.0"
     inkscape:pageshadow="2"
     inkscape:zoom="2.8"
     inkscape:cx="169.83921"
     inkscape:cy="45.532231"
     inkscape:document-units="px"
     inkscape:current-layer="layer1"
     width="170.71001px"
     height="92.31px"
     inkscape:window-width="1680"
     inkscape:window-height="1001"
     inkscape:window-x="-4"
     inkscape:window-y="-4" />
  <metadata
     id="metadata7">
    <rdf:RDF>
      <cc:Work
         rdf:about="">
        <dc:format>image/svg+xml</dc:format>
        <dc:type
           rdf:resource="http://purl.org/dc/dcmitype/StillImage" />
      </cc:Work>
    </rdf:RDF>
  </metadata>
  <g
     inkscape:label="Layer 1"
     inkscape:groupmode="layer"
     id="layer1"
     transform="translate(-14.950438,-45.54668)">
    <g
       id="g2251"
       transform="translate(64.057396,259.15663)">
      <g
         id="g2198"
         style="fill:#ffffff;fill-rule:evenodd;stroke:none;stroke-width:1;stroke-linecap:butt;stroke-linejoin:miter;stroke-dasharray:none"
         transform="translate(-62.629458,-256.33461)" />
      <g
         id="g3286"
         transform="matrix(2.0600448,0,0,2.0600448,-406.99911,-828.37105)">
        <g
           id="g3269"
           style="fill:#e20010;fill-rule:evenodd;stroke:none;stroke-width:1;stroke-linecap:butt;stroke-linejoin:miter;stroke-dasharray:none"
           transform="translate(188.05,299.847)">
          <path
             id="path3271"
             d="M 11.518,8.363 C 3.716,12.447 0,18.802 3.377,23.669 C 6.335,27.928 16.07,27.252 24.215,23.938 C 31.309,21.055 36.576,20.894 37.517,22.274 C 38.161,23.213 36.888,25.211 32.571,26.435 C 29.054,27.435 25.554,27.968 22.048,28.28 C 28.171,28.392 33.705,28.564 41.419,25.785 C 45.046,24.475 50.161,20.964 49.016,18.242 C 47.639,14.973 41.46,15.914 35.827,17.752 C 42.205,13.103 48.641,8.529 54.28,2.99 C 50.513,5.276 46.701,7.699 42.394,9.451 C 36.847,11.702 30.512,13.165 27.961,10.697 C 26.252,9.047 27.676,6.51 31.377,4.674 C 35.809,2.477 40.723,1.335 45.814,0.495 C 39.908,0 14.695,3.91 15.045,12.435 C 15.192,16.018 19.159,16.582 24.162,16.614 C 18.679,18.339 12.591,19.536 9.997,16.884 C 7.766,14.602 8.584,11.255 11.518,8.363" />
        </g>
        <g
           id="g3273"
           style="fill:#e20010;fill-rule:evenodd;stroke:none;stroke-width:1;stroke-linecap:butt;stroke-linejoin:miter;stroke-dasharray:none"
           transform="translate(197.221,338.859)">
          <path
             id="path3275"
             d="M 33.74,0 C 33.74,0 35.264,0 35.264,0 C 35.264,0 35.264,2.176 35.264,2.176 C 35.264,2.176 35.936,2.176 35.936,2.176 C 35.936,2.176 35.936,2.605 35.936,2.605 C 35.936,2.605 33.74,2.605 33.74,2.605 C 33.74,2.605 33.74,2.176 33.74,2.176 C 33.74,2.176 34.325,2.176 34.325,2.176 C 34.325,2.176 34.325,0.508 34.325,0.508 C 34.325,0.508 33.74,0.508 33.74,0.508 C 33.74,0.508 33.74,0 33.74,0 z M 5.619,0.469 C 5.619,0.469 7.163,0.469 7.163,0.469 C 7.255,0.469 7.333,0.544 7.333,0.638 C 7.333,0.638 7.333,1.967 7.333,1.967 C 7.333,2.061 7.255,2.137 7.163,2.137 C 7.163,2.137 5.619,2.137 5.619,2.137 C 5.526,2.137 5.45,2.061 5.45,1.967 C 5.45,1.967 5.45,0.638 5.45,0.638 C 5.45,0.544 5.526,0.469 5.619,0.469 z M 5.014,0 C 5.014,0 7.766,0 7.766,0 C 8.044,0 8.274,0.23 8.274,0.508 C 8.274,0.508 8.274,2.099 8.274,2.099 C 8.274,2.377 8.044,2.605 7.766,2.605 C 7.766,2.605 5.014,2.605 5.014,2.605 C 4.736,2.605 4.509,2.377 4.509,2.099 C 4.509,2.099 4.509,0.508 4.509,0.508 C 4.509,0.23 4.736,0 5.014,0 z M 10.132,0.508 C 10.132,0.508 10.132,2.605 10.132,2.605 C 10.132,2.605 9.085,2.605 9.085,2.605 C 9.085,2.605 9.085,0 9.085,0 C 9.085,0 12.127,0 12.127,0 C 13.13,0 13.148,1.661 12.113,1.661 C 12.113,1.661 12.883,2.605 12.883,2.605 C 12.883,2.605 11.766,2.605 11.766,2.605 C 11.766,2.605 10.94,1.677 10.94,1.677 C 10.94,1.677 10.417,1.677 10.417,1.677 C 10.417,1.677 10.417,1.339 10.417,1.339 C 10.417,1.339 11.604,1.339 11.604,1.339 C 12.022,1.339 12.029,0.508 11.604,0.508 C 11.604,0.508 10.132,0.508 10.132,0.508 z M 0,2.605 C 0,2.605 1.018,2.605 1.018,2.605 C 1.018,2.605 1.018,1.51 1.018,1.51 C 1.018,1.51 3.701,1.51 3.701,1.51 C 3.701,1.51 3.701,1.108 3.701,1.108 C 3.701,1.108 1.018,1.108 1.018,1.108 C 1.018,1.108 1.018,0.912 1.018,0.912 C 1.018,0.745 1.016,0.508 1.31,0.508 C 1.31,0.508 3.701,0.508 3.701,0.508 C 3.701,0.508 3.701,0 3.701,0 C 3.701,0 1.016,0 1.016,0 C 0.338,0 0,0.233 0,0.849 C 0,0.849 0,2.605 0,2.605 z M 14.634,2.605 C 14.634,2.605 13.636,2.605 13.636,2.605 C 13.636,2.605 13.636,0 13.636,0 C 13.636,0 17.093,0 17.093,0 C 17.695,0 18.086,0.298 18.086,0.828 C 18.086,0.828 18.086,2.605 18.086,2.605 C 18.086,2.605 17.093,2.605 17.093,2.605 C 17.093,2.05 17.093,1.574 17.093,1.018 C 17.093,0.817 17.093,0.508 16.757,0.508 C 16.757,0.508 16.295,0.508 16.295,0.508 C 16.295,0.508 16.295,2.605 16.295,2.605 C 16.295,2.605 15.424,2.605 15.424,2.605 C 15.424,2.605 15.424,0.508 15.424,0.508 C 15.424,0.508 14.634,0.508 14.634,0.508 C 14.634,0.508 14.634,2.605 14.634,2.605 z M 28.71,2.605 C 28.71,2.605 27.708,2.605 27.708,2.605 C 27.708,2.605 27.708,0 27.708,0 C 27.708,0 30.612,0 30.612,0 C 31.213,0 31.606,0.298 31.606,0.828 C 31.606,0.828 31.606,2.605 31.606,2.605 C 31.606,2.605 30.612,2.605 30.612,2.605 C 30.612,2.605 30.612,1.661 30.612,1.661 C 30.612,1.661 28.987,1.661 28.987,1.661 C 28.987,1.661 28.987,1.242 28.987,1.242 C 28.987,1.242 30.612,1.242 30.612,1.242 C 30.612,1.242 30.612,0.943 30.612,0.943 C 30.612,0.74 30.612,0.433 30.272,0.433 C 30.272,0.433 28.71,0.433 28.71,0.433 C 28.71,0.433 28.71,2.605 28.71,2.605 z M 24.422,0 C 24.422,0 23.418,0 23.418,0 C 23.418,0 23.418,1.777 23.418,1.777 C 23.418,2.334 23.808,2.605 24.422,2.605 C 24.422,2.605 27.053,2.605 27.053,2.605 C 27.053,2.605 27.053,2.168 27.053,2.168 C 27.053,2.168 24.787,2.168 24.787,2.168 C 24.422,2.168 24.422,1.869 24.422,1.661 C 24.422,1.661 24.422,0 24.422,0 z M 19.749,0 C 19.749,0 18.745,0 18.745,0 C 18.745,0 18.745,1.777 18.745,1.777 C 18.745,2.334 19.136,2.605 19.749,2.605 C 19.749,2.605 21.648,2.605 21.648,2.605 C 22.251,2.605 22.642,2.308 22.642,1.777 C 22.642,1.777 22.642,0 22.642,0 C 22.642,0 21.648,0 21.648,0 C 21.648,0 21.648,1.661 21.648,1.661 C 21.648,1.865 21.648,2.168 21.311,2.168 C 21.311,2.168 20.115,2.168 20.115,2.168 C 19.749,2.168 19.749,1.869 19.749,1.661 C 19.749,1.661 19.749,0 19.749,0 z " />
        </g>
        <g
           id="g3277"
           style="fill:#e20010;fill-rule:evenodd;stroke:none;stroke-width:1;stroke-linecap:butt;stroke-linejoin:miter;stroke-dasharray:none"
           transform="translate(175.179,331.879)">
          <path
             id="path3279"
             d="M 10.721,0 C 10.721,0 8.91,0 8.91,0 C 8.91,0 8.91,3.212 8.91,3.212 C 8.91,4.217 9.618,4.706 10.721,4.706 C 10.721,4.706 14.159,4.706 14.159,4.706 C 15.246,4.706 15.956,4.171 15.956,3.212 C 15.956,3.212 15.956,0 15.956,0 C 15.956,0 14.159,0 14.159,0 C 14.159,0 14.159,3.002 14.159,3.002 C 14.159,3.372 14.159,3.925 13.546,3.925 C 13.546,3.925 11.39,3.925 11.39,3.925 C 10.721,3.925 10.721,3.381 10.721,3.002 C 10.721,3.002 10.721,0 10.721,0 z M 63.29,0 C 63.29,0 61.482,0 61.482,0 C 61.482,0 61.482,3.212 61.482,3.212 C 61.482,4.217 62.187,4.706 63.29,4.706 C 63.29,4.706 66.729,4.706 66.729,4.706 C 67.813,4.706 68.526,4.171 68.526,3.212 C 68.526,3.212 68.526,0 68.526,0 C 68.526,0 66.729,0 66.729,0 C 66.729,0 66.729,3.002 66.729,3.002 C 66.729,3.372 66.729,3.925 66.115,3.925 C 66.115,3.925 63.957,3.925 63.957,3.925 C 63.29,3.925 63.29,3.381 63.29,3.002 C 63.29,3.002 63.29,0 63.29,0 z M 46.571,4.706 C 46.571,4.706 44.763,4.706 44.763,4.706 C 44.763,4.706 44.763,0 44.763,0 C 44.763,0 50.009,0 50.009,0 C 51.096,0 51.808,0.534 51.808,1.496 C 51.808,1.496 51.808,4.706 51.808,4.706 C 51.808,4.706 50.009,4.706 50.009,4.706 C 50.009,4.706 50.009,3.002 50.009,3.002 C 50.009,3.002 47.074,3.002 47.074,3.002 C 47.074,3.002 47.074,2.249 47.074,2.249 C 47.074,2.249 50.009,2.249 50.009,2.249 C 50.009,2.249 50.009,1.706 50.009,1.706 C 50.009,1.334 50.009,0.783 49.399,0.783 C 49.399,0.783 46.571,0.783 46.571,0.783 C 46.571,0.783 46.571,4.706 46.571,4.706 z M 18.989,0.783 C 18.989,0.783 18.989,4.706 18.989,4.706 C 18.989,4.706 17.266,4.706 17.266,4.706 C 17.266,4.706 17.266,0 17.266,0 C 17.266,0 23.291,0 23.291,0 C 24.661,0 24.685,3.002 23.291,3.002 C 23.291,3.002 19.522,3.002 19.522,3.002 C 19.522,3.002 19.522,2.249 19.522,2.249 C 19.522,2.249 22.089,2.249 22.089,2.249 C 22.773,2.249 22.773,0.783 22.089,0.783 C 22.089,0.783 18.989,0.783 18.989,0.783 z M 25.604,0 C 25.604,0 32.269,0 32.269,0 C 32.269,0 32.269,0.783 32.269,0.783 C 32.269,0.783 27.399,0.783 27.399,0.783 C 27.399,0.783 27.399,3.212 27.399,3.212 C 27.399,3.504 27.399,3.925 27.916,3.925 C 27.916,3.925 32.269,3.925 32.269,3.925 C 32.269,3.925 32.269,4.706 32.269,4.706 C 32.269,4.706 27.399,4.706 27.399,4.706 C 26.202,4.706 25.604,4.298 25.604,3.212 C 25.604,3.212 25.604,0 25.604,0 z M 27.916,1.998 C 27.916,1.998 32.269,1.998 32.269,1.998 C 32.269,1.998 32.269,2.654 32.269,2.654 C 32.269,2.654 27.916,2.654 27.916,2.654 C 27.916,2.654 27.916,1.998 27.916,1.998 z M 53.145,0 C 53.145,0 60.164,0 60.164,0 C 60.164,0 60.164,0.783 60.164,0.783 C 60.164,0.783 54.942,0.783 54.942,0.783 C 54.942,0.783 54.942,3.212 54.942,3.212 C 54.942,3.504 54.942,3.925 55.457,3.925 C 55.457,3.925 58.359,3.925 58.359,3.925 C 58.359,3.925 58.359,2.654 58.359,2.654 C 58.359,2.654 55.508,2.654 55.508,2.654 C 55.508,2.654 55.508,1.998 55.508,1.998 C 55.508,1.998 60.164,1.998 60.164,1.998 C 60.164,1.998 60.164,4.706 60.164,4.706 C 60.164,4.706 54.942,4.706 54.942,4.706 C 53.745,4.706 53.145,4.298 53.145,3.212 C 53.145,3.212 53.145,0 53.145,0 z M 35.488,0.783 C 35.488,0.783 35.488,4.706 35.488,4.706 C 35.488,4.706 33.594,4.706 33.594,4.706 C 33.594,4.706 33.594,0 33.594,0 C 33.594,0 39.094,0 39.094,0 C 40.907,0 40.942,3.002 39.066,3.002 C 39.066,3.002 40.459,4.706 40.459,4.706 C 40.459,4.706 38.299,4.706 38.299,4.706 C 38.299,4.706 36.951,3.002 36.951,3.002 C 36.951,3.002 36.005,3.002 36.005,3.002 C 36.005,3.002 36.005,2.249 36.005,2.249 C 36.005,2.249 38.148,2.249 38.148,2.249 C 38.911,2.249 38.918,0.783 38.148,0.783 C 38.148,0.783 35.488,0.783 35.488,0.783 z M 71.782,0.783 C 71.782,0.783 71.782,4.706 71.782,4.706 C 71.782,4.706 69.89,4.706 69.89,4.706 C 69.89,4.706 69.89,0 69.89,0 C 69.89,0 75.389,0 75.389,0 C 77.206,0 77.237,3.002 75.36,3.002 C 75.36,3.002 76.753,4.706 76.753,4.706 C 76.753,4.706 74.597,4.706 74.597,4.706 C 74.597,4.706 73.247,3.002 73.247,3.002 C 73.247,3.002 72.298,3.002 72.298,3.002 C 72.298,3.002 72.298,2.249 72.298,2.249 C 72.298,2.249 74.443,2.249 74.443,2.249 C 75.208,2.249 75.215,0.783 74.443,0.783 C 74.443,0.783 71.782,0.783 71.782,0.783 z M 78.292,0 C 78.292,0 80.019,0 80.019,0 C 80.019,0 80.019,4.706 80.019,4.706 C 80.019,4.706 78.292,4.706 78.292,4.706 C 78.292,4.706 78.292,0 78.292,0 z M 7.38,0 C 7.38,0 7.38,0.783 7.38,0.783 C 7.38,0.783 2.785,0.783 2.785,0.783 C 2.025,0.783 2.07,1.998 2.785,1.998 C 2.785,1.998 6.335,1.998 6.335,1.998 C 8.052,1.998 7.964,4.706 6.335,4.706 C 6.335,4.706 0.794,4.706 0.794,4.706 C 0.794,4.706 0.794,3.925 0.794,3.925 C 0.794,3.925 5.098,3.925 5.098,3.925 C 5.948,3.925 5.948,2.652 5.098,2.652 C 5.098,2.652 1.893,2.654 1.893,2.654 C 0,2.654 0.092,0 1.893,0 C 1.893,0 7.38,0 7.38,0 z " />
        </g>
      </g>
    </g>
  </g>
</svg>
