<?xml version="1.0" encoding="UTF-8" standalone="no"?>
<!-- Created by AtomCrusher for the English Wikipedia -->
<svg xmlns="http://www.w3.org/2000/svg" version="1.1" width="250" height="35">
  <g>
    <path d="m 197.32876,0.06031 -5.15625,11.59375 2.5,0 0.75,-1.84375 4.15625,0 0.75,1.84375 2.5,0 -5.125,-11.59375 -0.375,0 z m 12.9375,0 c -3.37415,0 -5.9375,2.52603 -5.9375,5.875 0,3.35841 2.56335,5.90625 5.9375,5.90625 2.08051,0 3.74707,-0.87251 4.8125,-2.53125 l 0.0625,-0.0937 -2,-1.375 -0.0937,0.0937 c -0.7381,1.1221 -1.55372,1.59375 -2.78125,1.59375 -1.90898,0 -3.3125,-1.51639 -3.3125,-3.59375 0,-2.09153 1.37362,-3.53125 3.3125,-3.53125 1.13625,0 2.0616,0.49347 2.625,1.40625 l 0.0625,0.0937 1.96875,-1.375 -0.0625,-0.0937 c -1.0198,-1.5832 -2.51009,-2.375 -4.59375,-2.375 z m 34,0 c -3.39461,0 -5.9375,2.52603 -5.9375,5.875 0,3.41349 2.52985,5.90625 6,5.90625 1.77363,0 3.2039,-0.56294 4.1875,-1.59375 1.05285,-1.10321 1.56475,-2.73581 1.46875,-4.71875 l 0,-0.0937 -5.5,0 0,2.25 2.78125,0 c -0.2943,0.94898 -1.30371,1.875 -2.96875,1.875 -1.9373,0 -3.34375,-1.53819 -3.34375,-3.625 0,-2.09153 1.35316,-3.53125 3.3125,-3.53125 1.16301,0 2.03777,0.47256 2.65625,1.46875 l 0.0625,0.125 2.03125,-1.4375 -0.0625,-0.0937 c -1.04183,-1.60681 -2.58023,-2.40625 -4.6875,-2.40625 z m -18.75,0.0312 0,11.59375 2.40625,0 0,-4.84375 c 0,-0.52249 0.0192,-1.00156 -0.0312,-1.4375 0.27698,0.34308 0.63332,0.68817 1,1.03125 l 5.6875,5.3125 0.0312,0.0312 0.40625,0 0,-11.59375 -2.40625,0 0,4.84375 c 0,0.50518 -0.0145,0.96403 0.0312,1.40625 -0.27855,-0.3478 -0.64276,-0.63511 -1,-0.96875 l -5.6875,-5.34375 -0.0312,-0.0312 -0.40625,0 z m -44.21875,0.0937 0,11.5 2.5625,0 0,-3.90625 1.28125,0 2.28125,3.90625 2.9375,0 -2.59375,-4.3125 c 1.38649,-0.59488 2.125,-1.80439 2.125,-3.375 0,-2.39369 -1.61193,-3.8125 -4.3125,-3.8125 l -4.28125,0 z m 36.96875,0 0,11.46875 2.625,0 0,-11.46875 -2.625,0 z m -34.40625,2.28125 1.65625,0 c 1.19606,0 1.75,0.47368 1.75,1.53125 0,1.07016 -0.55394,1.59375 -1.75,1.59375 l -1.65625,0 0,-3.125 z m 13.65625,1.9375 c 0,0 0.094,0.43412 0.28125,0.90625 l 1,2.5 -1.28125,0 -1.3125,0 1,-2.5 c 0.18728,-0.47213 0.3125,-0.90625 0.3125,-0.90625 z" style="fill:#7ccced" />
    <path d="m 94.51626,0.06031 0,11.625 3.0625,0 0,-6.40625 c 0,0 3.33003,4.60296 3.5,4.84375 0.17154,-0.23764 3.53125,-4.8125 3.53125,-4.8125 l 0,6.375 3.1875,0 0,-11.625 -3.21875,0 c -0.063,0.0944 -3.5,5.15625 -3.5,5.15625 0,0 -3.43705,-5.06025 -3.5,-5.15625 l -3.0625,0 z m 20.15625,0 c -0.0519,0.12118 -5.12882,11.31676 -5.25,11.59375 l 3.46875,0 c 0.0504,-0.11961 0.90625,-1.96875 0.90625,-1.96875 l 5.6875,0 c 0,0 0.85274,1.87882 0.90625,2 l 3.40625,0 c -0.1259,-0.27855 -5.25585,-11.50382 -5.3125,-11.625 l -3.8125,0 z m 10.875,0 0,11.625 3.25,0 0,-3.5625 2.09375,0 c 0,0 2.03395,3.44312 2.09375,3.53125 l 3.625,0 c -0.18885,-0.29115 -2.34375,-3.9375 -2.34375,-3.9375 0,0 2.34375,-0.67217 2.34375,-3.6875 0,-3.54569 -3.10564,-3.96875 -5.375,-3.96875 l -5.6875,0 z m 12.78125,0 0,2.8125 3.6875,0 0,8.8125 3.28125,0 0,-8.84375 3.65625,0 0,-2.78125 -10.625,0 z m 13.21875,0 0,11.625 3.125,0 0,-11.625 -3.125,0 z m 6.625,0 c 0,0.20144 -0.0312,11.42514 -0.0312,11.625 l 3.09375,0 c 0,-0.19672 0,-6.1875 0,-6.1875 0,0 5.50112,6.08543 5.5625,6.15625 l 2.53125,0 0,-11.59375 -2.96875,0 0,6.4375 c 0,0 -5.59645,-6.36039 -5.65625,-6.4375 l -2.53125,0 z m 14.625,0 0,11.625 3.15625,0 0,-11.625 -3.15625,0 z m -44,2.5625 3.0625,0 c 0.80261,0 1.65625,0.28235 1.65625,1.4375 0,1.34399 -1.10228,1.44987 -1.65625,1.46875 l -3.0625,0 0,-2.90625 z m -12.1875,0.46875 1.84375,4 -3.65625,0 1.8125,-4 z" style="fill:#eb1a2c" />
    <path d="M 85.5,0 C 83.38014,0 82.03777,1.4123 82,3.1875 81.9607,5.161 83.38149,6.05417 85.09375,6.78125 l 0.59375,0.25 C 86.77182,7.50495 87.27046,7.84329 87.25,8.5625 87.2295,9.23764 86.7961,9.75 85.8125,9.75 84.64319,9.75 83.94515,9.10006 83.53125,8.21875 l -2.0625,1.1875 c 0.56025,1.2952 2.09822,2.46875 4.3125,2.46875 2.23789,0 4.01821,-1.15038 4.09375,-3.28125 0.0661,-1.83501 -1.16296,-2.97841 -3.28125,-3.8125 L 86,4.53125 C 85.22729,4.20548 84.53125,3.83634 84.53125,3.125 c 0,-0.57442 0.33565,-0.9375 1.03125,-0.9375 0.67987,0 1.28394,0.4366 1.5625,1 L 89.09375,2.03125 C 88.26753,0.59912 86.93684,0 85.5,0 z m -27.84375,0.0625 -5.125,11.59375 2.5,0 0.75,-1.84375 4.15625,0 0.71875,1.84375 2.53125,0 -5.15625,-11.59375 -0.375,0 z m 8.40625,0 0,11.625 2.5,0 0,-4.25 C 68.5625,6.14072 68.5,5.5 68.5,5.5 c 0,0 0.43907,0.68367 0.875,1.21875 l 2.40625,2.96875 0.375,0 2.4375,-2.96875 C 75.02969,6.18367 75.46875,5.5 75.46875,5.5 c 0,0 -0.0937,0.64072 -0.0937,1.9375 l 0,4.25 2.53125,0 0,-11.625 -0.34375,0 -5.59375,6.3125 -5.5625,-6.3125 -0.34375,0 z m -58.5,0.0312 -4.25,9.15625 0.90625,2.40625 0.40625,0 2.5625,-5.75 C 7.61085,5.01703 7.75,4.4687 7.75,4.4687 c 0,0 0.14702,0.54361 0.5625,1.4375 l 2.5625,5.75 0.40625,0 0.90625,-2.40625 -4.25,-9.15625 -0.375,0 z M 0,0.1874 3.0625,8.4999 4.5,5.40615 2.6875,0.1874 0,0.1874 z m 12.78125,0 L 11,5.3749 12.4375,8.4999 15.5,0.1874 l -2.71875,0 z m 6.21875,0 0,11.46875 2.59375,0 0,-11.46875 -2.59375,0 z m 7.46875,0 0,11.46875 7.5625,0 0,-2.0625 -4.96875,0 0,-9.40625 -2.59375,0 z m 10.28125,0 0,11.46875 7.5625,0 0,-2.0625 -4.96875,0 0,-9.40625 -2.59375,0 z m 10.1875,0 0,11.46875 2.625,0 0,-11.46875 -2.625,0 z m 10.90625,4.21875 c 0,0 0.12523,0.40287 0.3125,0.875 l 1,2.53125 -1.3125,0 -1.28125,0 0.96875,-2.53125 c 0.18728,-0.47213 0.3125,-0.875 0.3125,-0.875 z" style="fill:#192c4e" />
  </g>
  <g>
    <path d="m 0,33.96453 250,0 0,-13.75884 -250,0 0,13.75884 z" style="fill:#7ccced" />
    <path d="m 0,28.55761 250,0 0,-3.09852 -250,0 0,3.09852 z" style="fill:#eb1a2c" />
    <path d="m 0,32.21759 250,0 0,-1.3931 -250,0 0,1.3931 z" style="fill:#192c4e" />
    <path d="m 0,25.97604 250,0 0,-1.39356 -250,0 0,1.39356 z" style="fill:#192c4e" />
    <path d="m 0,23.19206 250,0 0,-1.3931 -250,0 0,1.3931 z" style="fill:#192c4e" />
    <path d="m 0,20.40965 250,0 0,-1.3931 -250,0 0,1.3931 z" style="fill:#192c4e" />
    <path d="m 0,29.4336 250,0 0,-1.39309 -250,0 0,1.39309 z" style="fill:#192c4e" />
    <path d="m 0,35 250,0 0,-1.3931 -250,0 L 0,35 z" style="fill:#192c4e" />
  </g>
</svg>
